<?xml version="1.0" encoding="UTF-8"?>
<svg id="Layer_2" data-name="Layer 2" xmlns="http://www.w3.org/2000/svg" viewBox="0 0 177 54">
  <defs>
    <style>
      .cls-1 {
        fill: #fff;
        stroke-width: 0px;
      }
    </style>
  </defs>
  <g id="Layer_1-2" data-name="Layer 1">
    <g>
      <path class="cls-1" d="M43.31,26.99c-1.06,5.1-2.43,11.84-3.55,17.26-.97,3.75-.95,8.02-4.4,9.28-4.01,1.2-9.31.11-10.77-4.24-3.19-8.95-9.3-26.29-10.53-30.03-1.56-3.13-2.08-.08-2.07.45.13,7.87.16,16.61.16,23.76-.16,3.34.9,8.01-2.73,9.76-3.74,1.43-9.51,1.22-9.32-3.57-.26-7.99.04-18.45-.07-27.09,0-7.29-.03-14.22.01-18.05.02-1.06.2-2.11,1.01-2.83C2.39.36,5.79.42,8.82.45c5.45-.14,9.68.32,11.58,6.14,2.82,6.94,7.24,17.41,10.13,24.64.39.69.74,2.01,1.57,1.99.82-.15,1.22-4.3,1.7-7.55.84-6.1,1.74-13.23,2.74-18.74.54-5.19,4.16-6.24,9.16-6.47,4.27,0,7.79.45,10.29,2.74,1,.92,1.69,2.14,2.1,3.43,3.59,11.47,11.99,34.99,14.38,44.69.04,1.22-1.46,2.04-2.78,2.2-3.62.33-7.48.51-9.3-2.4-4.2-8.25-10.25-28.6-12.25-34.63-.79-2.4-1.67-2-2.14-.07"/>
      <path class="cls-1" d="M68.56.58c2.97-.85,8.9-.83,11.35.46,1.08.61,1.78,1.61,2.29,2.73,13.75,37.61,6.55,44.05,20.38.99,1.38-5.27,7.83-5.03,12.46-4.46,1.67.29,2.19,1.64,1.66,3.19-4.16,12.79-13.18,38.55-15.97,46.77-1.44,4.52-7.64,3.18-11.88,3.22-2.54-.22-4.2-1.36-4.82-3.64-2.64-7.62-9.41-27.33-13.26-38.5-.89-2.78-2.42-6.59-2.92-8.97-.12-.79,0-1.32.49-1.66l.2-.12Z"/>
      <path class="cls-1" d="M129.69.57c3.4-.93,7.76-.35,11.4-.5,10.8-.11,22.12-.54,29.46,8.37,8.78,10.6,8.79,28.48-1.2,38.36-7.56,7.42-18.65,6.83-28.53,6.78-7.78,0-18.42,0-24.83-.02-2.04-.1-4.02-.22-3.6-2.25,3.7-12.02,11.01-34.41,15.17-47.72.42-1.15.82-2.32,1.91-2.91l.22-.11ZM151.46,42.24c13.35-.84,15.74-20.42,6.82-28.08-4.3-3.62-10.96-2.97-16.81-3.01-3.37.2-5.25-.73-7.07,4.17-2.09,6.36-6.44,19.15-8.22,24.7-.69,2.87,3.29,2.32,5.14,2.4,6.41-.05,13.91.18,19.77-.15l.38-.04Z"/>
    </g>
  </g>
</svg>